<svg id="Group_26" data-name="Group 26"
    xmlns="http://www.w3.org/2000/svg"
    xmlns:xlink="http://www.w3.org/1999/xlink" width="171.218" height="42.542" viewBox="0 0 171.218 42.542">
    <defs>
        <clipPath id="clip-path">
            <rect id="Rectangle_35" data-name="Rectangle 35" width="171.218" height="42.542" fill="#ebf6fd"></rect>
        </clipPath>
    </defs>
    <path id="Path_31" data-name="Path 31" d="M193.391,70.444h-3.475l-5.2-16.665H188.2L191.7,66.6h.034l3.846-12.819h3.509L202.972,66.6h.034l3.542-12.819h3.407l-5.2,16.665h-3.475l-3.913-13.157h-.034Z" transform="translate(-129.921 -37.825)" fill="#ebf6fd"></path>
    <rect id="Rectangle_32" data-name="Rectangle 32" width="3.306" height="16.665" transform="translate(81.518 15.954)" fill="#ebf6fd"></rect>
    <g id="Group_25" data-name="Group 25">
        <g id="Group_24" data-name="Group 24" clip-path="url(#clip-path)">
            <path id="Path_32" data-name="Path 32" d="M294.361,68.371a5.882,5.882,0,0,1-2.294-4.386l3.272-.506a4.036,4.036,0,0,0,1.349,2.9,4.546,4.546,0,0,0,3,.978,4.624,4.624,0,0,0,2.682-.692,2.2,2.2,0,0,0,1-1.906,1.652,1.652,0,0,0-.776-1.5,9.42,9.42,0,0,0-2.7-.928l-2.5-.573a7.887,7.887,0,0,1-3.441-1.552,3.623,3.623,0,0,1-1.215-2.9,4,4,0,0,1,.877-2.513,5.678,5.678,0,0,1,2.412-1.754,9.016,9.016,0,0,1,3.424-.624,7.568,7.568,0,0,1,4.588,1.333,5.167,5.167,0,0,1,2.125,3.66l-3.272.573a3.359,3.359,0,0,0-1.1-2.226,3.586,3.586,0,0,0-2.446-.81,4,4,0,0,0-2.361.624,1.893,1.893,0,0,0-.877,1.6,1.423,1.423,0,0,0,.675,1.3,7.991,7.991,0,0,0,2.26.793l2.5.573a9.734,9.734,0,0,1,3.913,1.619,3.639,3.639,0,0,1,1.248,3,4.556,4.556,0,0,1-.945,2.851,6.094,6.094,0,0,1-2.581,1.906,9.431,9.431,0,0,1-3.627.675,8.427,8.427,0,0,1-5.2-1.518" transform="translate(-205.422 -36.865)" fill="#ebf6fd"></path>
            <path id="Path_33" data-name="Path 33" d="M360.268,61.894H347.955a5.957,5.957,0,0,0,1.383,3.947,4.674,4.674,0,0,0,6.022.523,4.431,4.431,0,0,0,1.468-2.412l3.34.438A7.915,7.915,0,0,1,357.62,68.3a7.548,7.548,0,0,1-5.043,1.585,7.943,7.943,0,0,1-4.065-1.029,7.134,7.134,0,0,1-2.783-3,10.115,10.115,0,0,1-1.012-4.672,9.794,9.794,0,0,1,1.046-4.622,7.567,7.567,0,0,1,2.867-3.07,7.8,7.8,0,0,1,4.048-1.08,7.223,7.223,0,0,1,6.612,4.048,9.462,9.462,0,0,1,.978,4.352Zm-3.441-2.5a4.852,4.852,0,0,0-1.248-3.087,3.748,3.748,0,0,0-2.9-1.265,4.432,4.432,0,0,0-3.171,1.215,4.865,4.865,0,0,0-1.484,3.137Z" transform="translate(-242.452 -36.865)" fill="#ebf6fd"></path>
            <path id="Path_34" data-name="Path 34" d="M406.946,70.444h-3.475l-5.2-16.665h3.475L405.259,66.6h.034l3.846-12.819h3.508L416.527,66.6h.034L420.1,53.779h3.407l-5.2,16.665H414.84l-3.913-13.157h-.034Z" transform="translate(-280.123 -37.825)" fill="#ebf6fd"></path>
            <path id="Path_35" data-name="Path 35" d="M499.8,61.894H487.485a5.957,5.957,0,0,0,1.383,3.947,4.674,4.674,0,0,0,6.022.523,4.43,4.43,0,0,0,1.468-2.412l3.34.438A7.915,7.915,0,0,1,497.15,68.3a7.548,7.548,0,0,1-5.043,1.585,7.943,7.943,0,0,1-4.065-1.029,7.134,7.134,0,0,1-2.783-3,10.115,10.115,0,0,1-1.012-4.672,9.794,9.794,0,0,1,1.046-4.622,7.567,7.567,0,0,1,2.867-3.07,7.8,7.8,0,0,1,4.048-1.08,7.223,7.223,0,0,1,6.612,4.048,9.462,9.462,0,0,1,.978,4.352Zm-3.441-2.5a4.852,4.852,0,0,0-1.248-3.087,3.748,3.748,0,0,0-2.9-1.265,4.432,4.432,0,0,0-3.171,1.215,4.865,4.865,0,0,0-1.484,3.137Z" transform="translate(-340.588 -36.865)" fill="#ebf6fd"></path>
            <rect id="Rectangle_33" data-name="Rectangle 33" width="3.306" height="21.86" transform="translate(161.402 10.759)" fill="#ebf6fd"></rect>
            <rect id="Rectangle_34" data-name="Rectangle 34" width="3.306" height="21.86" transform="translate(167.912 10.759)" fill="#ebf6fd"></rect>
            <path id="Path_36" data-name="Path 36" d="M106.494,58.176s.294,1.146.391,1.731a20.575,20.575,0,0,1,4.06-5.784c3.172-3.149,1.674-4.707-.221-6.678a15.465,15.465,0,0,1-1.525-1.754c-.444.883-.9,1.626-1.322,2.307-1.533,2.485-2.641,4.281-1.382,10.178" transform="translate(-74.517 -32.136)" fill="#ebf6fd"></path>
            <path id="Path_37" data-name="Path 37" d="M90.171,34.24l.007.007A13.463,13.463,0,0,1,91.625,36a10.836,10.836,0,0,1,2.124-6.963,22.141,22.141,0,0,0,1.8-3.38c.887-2.155-.387-2.984-2.716-4.264A13.5,13.5,0,0,1,90.3,19.747c-.313.892-.689,1.777-1.058,2.641C87.566,26.3,85.985,30,90.171,34.24" transform="translate(-61.543 -13.889)" fill="#ebf6fd"></path>
            <path id="Path_38" data-name="Path 38" d="M66.785,2.876c0,8.471.1,8.582,3.427,11.975l1.564,1.6c-.682-3.031.532-5.87,1.647-8.481A27.692,27.692,0,0,0,74.79,4.324c.444-1.656-.373-2.02-2.263-2.686a15.063,15.063,0,0,1-1.473-.578l-.032-.015c-1.154-.549-2.9-1.379-3.651-.9-.483.305-.586,1.209-.587,1.918v.816" transform="translate(-46.972 0)" fill="#ebf6fd"></path>
            <path id="Path_39" data-name="Path 39" d="M36.32,7.967c1.116,2.61,2.33,5.45,1.647,8.481l1.559-1.592c3.329-3.4,3.429-3.505,3.432-11.98V2.06c0-.708-.1-1.613-.587-1.918-.753-.476-2.5.354-3.651.9l-.031.015a15.122,15.122,0,0,1-1.473.578c-1.89.666-2.706,1.03-2.263,2.686A27.736,27.736,0,0,0,36.32,7.967" transform="translate(-24.501 0)" fill="#ebf6fd"></path>
            <path id="Path_40" data-name="Path 40" d="M15.494,29.039a10.835,10.835,0,0,1,2.125,6.92c.024-.022.943-1.2,1.447-1.711l.006-.007C23.259,30,21.678,26.3,20,22.388c-.369-.864-.746-1.749-1.058-2.641a13.5,13.5,0,0,1-2.537,1.648c-2.329,1.28-3.6,2.109-2.716,4.264a22.13,22.13,0,0,0,1.8,3.38" transform="translate(-9.431 -13.889)" fill="#ebf6fd"></path>
            <path id="Path_41" data-name="Path 41" d="M5.9,59.908c.1-.585.391-1.731.391-1.731,1.258-5.9.151-7.693-1.383-10.178-.419-.68-.878-1.423-1.322-2.306a15.489,15.489,0,0,1-1.525,1.753c-1.9,1.972-3.393,3.529-.221,6.678A20.572,20.572,0,0,1,5.9,59.908" transform="translate(0 -32.137)" fill="#ebf6fd"></path>
            <path id="Path_42" data-name="Path 42" d="M7.554,89.775q-.11-.444-.189-.892a16.846,16.846,0,0,0-1.3-4.252A19.585,19.585,0,0,0,3.1,80.14a9.294,9.294,0,0,1-.622,3.687C1.861,85.7,1.455,86.94,4.461,89.215c3.054,2.312,3.293,4.2,3.485,5.721A2.962,2.962,0,0,0,9.367,97.57a4.923,4.923,0,0,0,2.8.433c.383,0,.8-.007,1.248,0a13.7,13.7,0,0,1-5.863-8.231" transform="translate(-1.435 -56.365)" fill="#ebf6fd"></path>
            <path id="Path_43" data-name="Path 43" d="M47.592,62.03c.051-.2.094-.408.134-.613h0c.036-.262.08-.519.128-.773a12.685,12.685,0,0,0-1.039-6.9,5.646,5.646,0,0,0-3.52-3.045c-.059-.018-.106-.031-.138-.038a5.467,5.467,0,0,0-2-.073,5.2,5.2,0,0,0-3.334,1.984,5.684,5.684,0,0,0-1.147,3.732,6.187,6.187,0,0,0,.415,1.958,16.062,16.062,0,0,0,.934,1.92h0l.037.081a.7.7,0,0,1-.341.928.71.71,0,0,1-.287.064l-3.25.031h-.007a.536.536,0,0,1-.066-1.07L36.381,60c-.031-.059-.439-.876-.581-1.252a7.977,7.977,0,0,1-.347-1.17,7.551,7.551,0,0,1-.154-1.217,7.147,7.147,0,0,1,.307-2.439,6.756,6.756,0,0,1,1.16-2.18,6.61,6.61,0,0,1,1.873-1.614,6.411,6.411,0,0,1,2.341-.8,6.548,6.548,0,0,1,2.452.134q.15.038.3.08l-7.836-8.386-7.608,8.153c.243-.054.489-.1.736-.126a7.471,7.471,0,0,1,2.385.107c.2.039.388.089.579.143s.367.113.549.174c.356.123.7.259,1.047.407a.693.693,0,0,1,.414.764.684.684,0,0,1-.932.5h0c-.32-.132-.642-.252-.967-.358-.162-.052-.328-.1-.488-.146s-.316-.081-.475-.111a5.979,5.979,0,0,0-3.779.5,3.246,3.246,0,0,0-.285.16,5.531,5.531,0,0,0-2.089,2.41,12.68,12.68,0,0,0-1.046,6.916c.048.253.091.509.127.77h0c.04.2.084.41.134.613a12.79,12.79,0,0,0,8.852,9.108c.061.02.123.037.185.055l.026.006a12.141,12.141,0,0,0,5.278,0l.025-.006c.062-.019.125-.036.187-.056a12.79,12.79,0,0,0,8.851-9.108M29.738,56.945a1.391,1.391,0,0,1-1.289-1.916,3.372,3.372,0,0,0-1.108.738l-.958-.958a4.75,4.75,0,0,1,6.71,0l-.958.958a3.372,3.372,0,0,0-1.108-.738,1.391,1.391,0,0,1-1.289,1.916M38.6,66.571l-.023.043a2.111,2.111,0,0,1-.531.642,3.244,3.244,0,0,1-.323.23c-.056.036-.114.065-.171.1a1.848,1.848,0,0,1-.176.086,3.633,3.633,0,0,1-1.5.3,3.7,3.7,0,0,1-1.481-.32c-.058-.025-.115-.058-.172-.087s-.113-.059-.168-.095a3.52,3.52,0,0,1-.319-.226,2.3,2.3,0,0,1-.541-.627l-.024-.043a.047.047,0,0,1,.025-.066.062.062,0,0,1,.037,0l.328.065.33.055.33.051.332.041a11.8,11.8,0,0,0,1.334.08,10.7,10.7,0,0,0,1.333-.065l.331-.04.329-.053.328-.06.325-.074a.057.057,0,0,1,.068.036.044.044,0,0,1,0,.033m1.756-2a7.87,7.87,0,0,1-1.118.566,3.423,3.423,0,0,1-.864.136c-.155,0-.691-.178-1-.178a14.554,14.554,0,0,0-1.482.278,14.537,14.537,0,0,0-1.482-.278c-.3,0-.84.178-1,.178a3.423,3.423,0,0,1-.864-.136,7.87,7.87,0,0,1-1.118-.566.334.334,0,0,1-.112-.449.341.341,0,0,1,.318-.152l.033,0a10.034,10.034,0,0,0,1.059.229,2.324,2.324,0,0,0,.79-.163,2.232,2.232,0,0,1,1.062-.41c.27,0,.916.223,1.209.236.04,0,.075,0,.1,0s.06,0,.1,0c.293-.013.94-.24,1.21-.236a2.232,2.232,0,0,1,1.061.41,2.324,2.324,0,0,0,.79.163,10.033,10.033,0,0,0,1.059-.229l.033,0a.341.341,0,0,1,.318.152.334.334,0,0,1-.112.449M43.3,55.553a1.392,1.392,0,1,1-2.681-.525,3.372,3.372,0,0,0-1.108.738l-.958-.958a4.75,4.75,0,0,1,6.71,0l-.958.958a3.372,3.372,0,0,0-1.108-.738,1.389,1.389,0,0,1,.1.525" transform="translate(-16.756 -28.948)" fill="#ebf6fd"></path>
            <path id="Path_44" data-name="Path 44" d="M98.936,80.139a19.576,19.576,0,0,0-2.965,4.489,16.869,16.869,0,0,0-1.3,4.256q-.079.446-.189.89A13.7,13.7,0,0,1,88.616,98c.45-.009.865-.007,1.248,0a4.926,4.926,0,0,0,2.8-.432,2.962,2.962,0,0,0,1.421-2.633c.192-1.519.431-3.41,3.485-5.721,3.005-2.275,2.6-3.514,1.986-5.388a9.3,9.3,0,0,1-.622-3.687" transform="translate(-62.327 -56.365)" fill="#ebf6fd"></path>
        </g>
    </g>
</svg>